<mxfile host="Electron" modified="2024-07-17T18:34:17.667Z" agent="Mozilla/5.0 (Windows NT 10.0; Win64; x64) AppleWebKit/537.36 (KHTML, like Gecko) draw.io/24.5.3 Chrome/124.0.6367.207 Electron/30.0.6 Safari/537.36" etag="JM1E2D_Dt5r53SP0TAbO" version="24.5.3" type="device">
  <diagram name="Page-1" id="VBUNOp-H4bmFyYee0GM0">
    <mxGraphModel dx="2806" dy="1129" grid="1" gridSize="10" guides="1" tooltips="1" connect="1" arrows="1" fold="1" page="1" pageScale="1" pageWidth="850" pageHeight="1100" math="0" shadow="0">
      <root>
        <mxCell id="0" />
        <mxCell id="1" parent="0" />
        <mxCell id="XZWh8vnDKRJ4fjBg42Jt-1" value="Main Program" style="rounded=0;whiteSpace=wrap;html=1;" vertex="1" parent="1">
          <mxGeometry x="420" y="40" width="120" height="40" as="geometry" />
        </mxCell>
        <mxCell id="XZWh8vnDKRJ4fjBg42Jt-2" value="" style="rhombus;whiteSpace=wrap;html=1;" vertex="1" parent="1">
          <mxGeometry x="440" y="80" width="80" height="80" as="geometry" />
        </mxCell>
        <mxCell id="XZWh8vnDKRJ4fjBg42Jt-3" value="" style="endArrow=none;html=1;rounded=0;entryX=0.5;entryY=1;entryDx=0;entryDy=0;" edge="1" parent="1" target="XZWh8vnDKRJ4fjBg42Jt-1">
          <mxGeometry width="50" height="50" relative="1" as="geometry">
            <mxPoint x="80" y="120" as="sourcePoint" />
            <mxPoint x="450" y="120" as="targetPoint" />
            <Array as="points">
              <mxPoint x="200" y="80" />
            </Array>
          </mxGeometry>
        </mxCell>
        <mxCell id="XZWh8vnDKRJ4fjBg42Jt-4" value="Initialization" style="rounded=0;whiteSpace=wrap;html=1;" vertex="1" parent="1">
          <mxGeometry x="20" y="120" width="120" height="40" as="geometry" />
        </mxCell>
        <mxCell id="XZWh8vnDKRJ4fjBg42Jt-5" value="Open PORTFOLIO-File-in" style="rounded=1;whiteSpace=wrap;html=1;" vertex="1" parent="1">
          <mxGeometry x="200" y="200" width="150" height="50" as="geometry" />
        </mxCell>
        <mxCell id="XZWh8vnDKRJ4fjBg42Jt-6" value="Open REPORT File-in" style="rounded=1;whiteSpace=wrap;html=1;" vertex="1" parent="1">
          <mxGeometry x="10" y="200" width="140" height="50" as="geometry" />
        </mxCell>
        <mxCell id="XZWh8vnDKRJ4fjBg42Jt-7" value="Open STOCKS File-in" style="rounded=1;whiteSpace=wrap;html=1;" vertex="1" parent="1">
          <mxGeometry x="-150" y="200" width="120" height="50" as="geometry" />
        </mxCell>
        <mxCell id="XZWh8vnDKRJ4fjBg42Jt-8" value="" style="endArrow=none;html=1;rounded=0;entryX=0.5;entryY=1;entryDx=0;entryDy=0;exitX=0.5;exitY=0;exitDx=0;exitDy=0;" edge="1" parent="1" source="XZWh8vnDKRJ4fjBg42Jt-5" target="XZWh8vnDKRJ4fjBg42Jt-4">
          <mxGeometry width="50" height="50" relative="1" as="geometry">
            <mxPoint x="320" y="290" as="sourcePoint" />
            <mxPoint x="370" y="240" as="targetPoint" />
          </mxGeometry>
        </mxCell>
        <mxCell id="XZWh8vnDKRJ4fjBg42Jt-9" value="" style="endArrow=none;html=1;rounded=0;exitX=0.5;exitY=0;exitDx=0;exitDy=0;" edge="1" parent="1" source="XZWh8vnDKRJ4fjBg42Jt-6">
          <mxGeometry width="50" height="50" relative="1" as="geometry">
            <mxPoint x="320" y="290" as="sourcePoint" />
            <mxPoint x="80" y="160" as="targetPoint" />
          </mxGeometry>
        </mxCell>
        <mxCell id="XZWh8vnDKRJ4fjBg42Jt-10" value="" style="endArrow=none;html=1;rounded=0;entryX=0.5;entryY=1;entryDx=0;entryDy=0;exitX=0.5;exitY=0;exitDx=0;exitDy=0;" edge="1" parent="1" source="XZWh8vnDKRJ4fjBg42Jt-7" target="XZWh8vnDKRJ4fjBg42Jt-4">
          <mxGeometry width="50" height="50" relative="1" as="geometry">
            <mxPoint x="320" y="290" as="sourcePoint" />
            <mxPoint x="370" y="240" as="targetPoint" />
          </mxGeometry>
        </mxCell>
        <mxCell id="XZWh8vnDKRJ4fjBg42Jt-11" value="100" style="text;html=1;align=center;verticalAlign=middle;resizable=0;points=[];autosize=1;strokeColor=none;fillColor=none;" vertex="1" parent="1">
          <mxGeometry x="10" y="90" width="40" height="30" as="geometry" />
        </mxCell>
        <mxCell id="XZWh8vnDKRJ4fjBg42Jt-12" value="Process Files" style="rounded=0;whiteSpace=wrap;html=1;" vertex="1" parent="1">
          <mxGeometry x="425" y="160" width="120" height="50" as="geometry" />
        </mxCell>
        <mxCell id="XZWh8vnDKRJ4fjBg42Jt-13" value="" style="endArrow=none;html=1;rounded=0;exitX=0.5;exitY=0;exitDx=0;exitDy=0;" edge="1" parent="1" source="XZWh8vnDKRJ4fjBg42Jt-16">
          <mxGeometry width="50" height="50" relative="1" as="geometry">
            <mxPoint x="680" y="320" as="sourcePoint" />
            <mxPoint x="480" y="210" as="targetPoint" />
          </mxGeometry>
        </mxCell>
        <mxCell id="XZWh8vnDKRJ4fjBg42Jt-14" value="" style="endArrow=none;html=1;rounded=0;" edge="1" parent="1">
          <mxGeometry width="50" height="50" relative="1" as="geometry">
            <mxPoint x="280" y="320" as="sourcePoint" />
            <mxPoint x="480" y="210" as="targetPoint" />
          </mxGeometry>
        </mxCell>
        <mxCell id="XZWh8vnDKRJ4fjBg42Jt-16" value="Load PORTFOLIO" style="rounded=0;whiteSpace=wrap;html=1;" vertex="1" parent="1">
          <mxGeometry x="730" y="320" width="120" height="40" as="geometry" />
        </mxCell>
        <mxCell id="XZWh8vnDKRJ4fjBg42Jt-17" value="Load-STOCKS" style="rounded=0;whiteSpace=wrap;html=1;" vertex="1" parent="1">
          <mxGeometry x="210" y="320" width="120" height="40" as="geometry" />
        </mxCell>
        <mxCell id="XZWh8vnDKRJ4fjBg42Jt-18" value="200" style="text;html=1;align=center;verticalAlign=middle;resizable=0;points=[];autosize=1;strokeColor=none;fillColor=none;" vertex="1" parent="1">
          <mxGeometry x="410" y="130" width="40" height="30" as="geometry" />
        </mxCell>
        <mxCell id="XZWh8vnDKRJ4fjBg42Jt-19" value="201" style="text;html=1;align=center;verticalAlign=middle;resizable=0;points=[];autosize=1;strokeColor=none;fillColor=none;" vertex="1" parent="1">
          <mxGeometry x="210" y="288" width="40" height="30" as="geometry" />
        </mxCell>
        <mxCell id="XZWh8vnDKRJ4fjBg42Jt-20" value="202" style="text;html=1;align=center;verticalAlign=middle;resizable=0;points=[];autosize=1;strokeColor=none;fillColor=none;" vertex="1" parent="1">
          <mxGeometry x="800" y="290" width="40" height="30" as="geometry" />
        </mxCell>
        <mxCell id="XZWh8vnDKRJ4fjBg42Jt-21" value="READ STOCKS-FILE-IN" style="rounded=1;whiteSpace=wrap;html=1;" vertex="1" parent="1">
          <mxGeometry x="350" y="450" width="120" height="60" as="geometry" />
        </mxCell>
        <mxCell id="XZWh8vnDKRJ4fjBg42Jt-22" value="MOVE STOCKS-PRICE-IN TO STOCK-PRICE-OUT" style="rounded=1;whiteSpace=wrap;html=1;" vertex="1" parent="1">
          <mxGeometry x="210" y="400" width="120" height="60" as="geometry" />
        </mxCell>
        <mxCell id="XZWh8vnDKRJ4fjBg42Jt-23" value="MOVE STOCKS-NAME-IN TO STOCK-NAME-OUT" style="rounded=1;whiteSpace=wrap;html=1;" vertex="1" parent="1">
          <mxGeometry x="70" y="450" width="120" height="60" as="geometry" />
        </mxCell>
        <mxCell id="XZWh8vnDKRJ4fjBg42Jt-24" value="Move STOCK-SYMBOL-IN TO STOCK-SYMBOL-OUT" style="rounded=1;whiteSpace=wrap;html=1;" vertex="1" parent="1">
          <mxGeometry x="-70" y="390" width="130" height="60" as="geometry" />
        </mxCell>
        <mxCell id="XZWh8vnDKRJ4fjBg42Jt-25" value="" style="endArrow=none;html=1;rounded=0;entryX=0.5;entryY=1;entryDx=0;entryDy=0;exitX=0.5;exitY=0;exitDx=0;exitDy=0;" edge="1" parent="1" source="XZWh8vnDKRJ4fjBg42Jt-21" target="XZWh8vnDKRJ4fjBg42Jt-17">
          <mxGeometry width="50" height="50" relative="1" as="geometry">
            <mxPoint x="320" y="430" as="sourcePoint" />
            <mxPoint x="370" y="380" as="targetPoint" />
            <Array as="points">
              <mxPoint x="400" y="400" />
            </Array>
          </mxGeometry>
        </mxCell>
        <mxCell id="XZWh8vnDKRJ4fjBg42Jt-26" value="" style="endArrow=none;html=1;rounded=0;exitX=0.58;exitY=-0.027;exitDx=0;exitDy=0;exitPerimeter=0;" edge="1" parent="1" source="XZWh8vnDKRJ4fjBg42Jt-22">
          <mxGeometry width="50" height="50" relative="1" as="geometry">
            <mxPoint x="320" y="430" as="sourcePoint" />
            <mxPoint x="270" y="360" as="targetPoint" />
          </mxGeometry>
        </mxCell>
        <mxCell id="XZWh8vnDKRJ4fjBg42Jt-27" value="" style="endArrow=none;html=1;rounded=0;entryX=0.5;entryY=1;entryDx=0;entryDy=0;exitX=0.5;exitY=0;exitDx=0;exitDy=0;" edge="1" parent="1" source="XZWh8vnDKRJ4fjBg42Jt-23" target="XZWh8vnDKRJ4fjBg42Jt-17">
          <mxGeometry width="50" height="50" relative="1" as="geometry">
            <mxPoint x="320" y="430" as="sourcePoint" />
            <mxPoint x="370" y="380" as="targetPoint" />
            <Array as="points">
              <mxPoint x="160" y="400" />
            </Array>
          </mxGeometry>
        </mxCell>
        <mxCell id="XZWh8vnDKRJ4fjBg42Jt-28" value="" style="endArrow=none;html=1;rounded=0;entryX=0.5;entryY=1;entryDx=0;entryDy=0;exitX=0.5;exitY=0;exitDx=0;exitDy=0;" edge="1" parent="1" source="XZWh8vnDKRJ4fjBg42Jt-24" target="XZWh8vnDKRJ4fjBg42Jt-17">
          <mxGeometry width="50" height="50" relative="1" as="geometry">
            <mxPoint x="320" y="430" as="sourcePoint" />
            <mxPoint x="370" y="380" as="targetPoint" />
          </mxGeometry>
        </mxCell>
        <mxCell id="XZWh8vnDKRJ4fjBg42Jt-29" value="MOVE PRSTOCK-SHARES-IN TO PRSTOCK-SHARES-OUT" style="rounded=1;whiteSpace=wrap;html=1;" vertex="1" parent="1">
          <mxGeometry x="680" y="410" width="130" height="70" as="geometry" />
        </mxCell>
        <mxCell id="XZWh8vnDKRJ4fjBg42Jt-30" value="MOVE PRSTOCK-SYMBOL-IN TO PRSTOCK-SYMBOL-OUT" style="rounded=1;whiteSpace=wrap;html=1;" vertex="1" parent="1">
          <mxGeometry x="560" y="500" width="130" height="70" as="geometry" />
        </mxCell>
        <mxCell id="XZWh8vnDKRJ4fjBg42Jt-31" value="MOVE PRAVERAGE-COST-IN TO PRAVERAGE-COST-OUT" style="rounded=1;whiteSpace=wrap;html=1;" vertex="1" parent="1">
          <mxGeometry x="810" y="500" width="130" height="70" as="geometry" />
        </mxCell>
        <mxCell id="XZWh8vnDKRJ4fjBg42Jt-32" value="READ PORTFOLIO-FILE-IN" style="rounded=1;whiteSpace=wrap;html=1;" vertex="1" parent="1">
          <mxGeometry x="910" y="410" width="120" height="60" as="geometry" />
        </mxCell>
        <mxCell id="XZWh8vnDKRJ4fjBg42Jt-33" value="" style="endArrow=none;html=1;rounded=0;exitX=0.5;exitY=0;exitDx=0;exitDy=0;" edge="1" parent="1" source="XZWh8vnDKRJ4fjBg42Jt-31">
          <mxGeometry width="50" height="50" relative="1" as="geometry">
            <mxPoint x="550" y="330" as="sourcePoint" />
            <mxPoint x="790" y="360" as="targetPoint" />
          </mxGeometry>
        </mxCell>
        <mxCell id="XZWh8vnDKRJ4fjBg42Jt-34" value="" style="endArrow=none;html=1;rounded=0;entryX=0.5;entryY=1;entryDx=0;entryDy=0;exitX=0.5;exitY=0;exitDx=0;exitDy=0;" edge="1" parent="1" source="XZWh8vnDKRJ4fjBg42Jt-29" target="XZWh8vnDKRJ4fjBg42Jt-16">
          <mxGeometry width="50" height="50" relative="1" as="geometry">
            <mxPoint x="550" y="330" as="sourcePoint" />
            <mxPoint x="600" y="280" as="targetPoint" />
          </mxGeometry>
        </mxCell>
        <mxCell id="XZWh8vnDKRJ4fjBg42Jt-35" value="" style="endArrow=none;html=1;rounded=0;entryX=0.5;entryY=1;entryDx=0;entryDy=0;exitX=0.5;exitY=0;exitDx=0;exitDy=0;" edge="1" parent="1" source="XZWh8vnDKRJ4fjBg42Jt-30" target="XZWh8vnDKRJ4fjBg42Jt-16">
          <mxGeometry width="50" height="50" relative="1" as="geometry">
            <mxPoint x="550" y="330" as="sourcePoint" />
            <mxPoint x="600" y="280" as="targetPoint" />
            <Array as="points">
              <mxPoint x="640" y="400" />
            </Array>
          </mxGeometry>
        </mxCell>
        <mxCell id="XZWh8vnDKRJ4fjBg42Jt-36" value="" style="endArrow=none;html=1;rounded=0;exitX=0.5;exitY=0;exitDx=0;exitDy=0;" edge="1" parent="1" source="XZWh8vnDKRJ4fjBg42Jt-32">
          <mxGeometry width="50" height="50" relative="1" as="geometry">
            <mxPoint x="550" y="330" as="sourcePoint" />
            <mxPoint x="790" y="360" as="targetPoint" />
          </mxGeometry>
        </mxCell>
        <mxCell id="XZWh8vnDKRJ4fjBg42Jt-38" value="Create Report File" style="rounded=0;whiteSpace=wrap;html=1;" vertex="1" parent="1">
          <mxGeometry x="1060" y="115" width="120" height="50" as="geometry" />
        </mxCell>
        <mxCell id="XZWh8vnDKRJ4fjBg42Jt-39" value="" style="endArrow=none;html=1;rounded=0;entryX=0.5;entryY=0;entryDx=0;entryDy=0;exitX=0.5;exitY=0;exitDx=0;exitDy=0;" edge="1" parent="1" source="XZWh8vnDKRJ4fjBg42Jt-38" target="XZWh8vnDKRJ4fjBg42Jt-2">
          <mxGeometry width="50" height="50" relative="1" as="geometry">
            <mxPoint x="650" y="320" as="sourcePoint" />
            <mxPoint x="700" y="270" as="targetPoint" />
          </mxGeometry>
        </mxCell>
        <mxCell id="XZWh8vnDKRJ4fjBg42Jt-40" value="Write header" style="rounded=0;whiteSpace=wrap;html=1;" vertex="1" parent="1">
          <mxGeometry x="920" y="195" width="120" height="45" as="geometry" />
        </mxCell>
        <mxCell id="XZWh8vnDKRJ4fjBg42Jt-41" value="Checking Progress" style="rounded=0;whiteSpace=wrap;html=1;" vertex="1" parent="1">
          <mxGeometry x="1170" y="190" width="120" height="50" as="geometry" />
        </mxCell>
        <mxCell id="XZWh8vnDKRJ4fjBg42Jt-42" value="Varying Stock-Index" style="rounded=1;whiteSpace=wrap;html=1;" vertex="1" parent="1">
          <mxGeometry x="1260" y="279.5" width="120" height="47" as="geometry" />
        </mxCell>
        <mxCell id="XZWh8vnDKRJ4fjBg42Jt-43" value="WRITE REPORT" style="rounded=1;whiteSpace=wrap;html=1;" vertex="1" parent="1">
          <mxGeometry x="1490" y="430" width="120" height="50" as="geometry" />
        </mxCell>
        <mxCell id="XZWh8vnDKRJ4fjBg42Jt-44" value="DISPLAY MATCH" style="rounded=1;whiteSpace=wrap;html=1;" vertex="1" parent="1">
          <mxGeometry x="1070" y="370" width="120" height="50" as="geometry" />
        </mxCell>
        <mxCell id="XZWh8vnDKRJ4fjBg42Jt-45" value="MOVE DATA TO REPORT" style="rounded=1;whiteSpace=wrap;html=1;" vertex="1" parent="1">
          <mxGeometry x="1210" y="430" width="120" height="50" as="geometry" />
        </mxCell>
        <mxCell id="XZWh8vnDKRJ4fjBg42Jt-46" value="CALCULATE RESULTS" style="rounded=1;whiteSpace=wrap;html=1;" vertex="1" parent="1">
          <mxGeometry x="1350" y="370" width="120" height="50" as="geometry" />
        </mxCell>
        <mxCell id="XZWh8vnDKRJ4fjBg42Jt-47" value="" style="endArrow=none;html=1;rounded=0;entryX=0.5;entryY=1;entryDx=0;entryDy=0;exitX=0.5;exitY=0;exitDx=0;exitDy=0;" edge="1" parent="1" source="XZWh8vnDKRJ4fjBg42Jt-43" target="XZWh8vnDKRJ4fjBg42Jt-42">
          <mxGeometry width="50" height="50" relative="1" as="geometry">
            <mxPoint x="1040" y="370" as="sourcePoint" />
            <mxPoint x="1090" y="320" as="targetPoint" />
            <Array as="points">
              <mxPoint x="1520" y="360" />
            </Array>
          </mxGeometry>
        </mxCell>
        <mxCell id="XZWh8vnDKRJ4fjBg42Jt-48" value="" style="endArrow=none;html=1;rounded=0;entryX=0.5;entryY=1;entryDx=0;entryDy=0;exitX=0.5;exitY=0;exitDx=0;exitDy=0;" edge="1" parent="1" source="XZWh8vnDKRJ4fjBg42Jt-46" target="XZWh8vnDKRJ4fjBg42Jt-42">
          <mxGeometry width="50" height="50" relative="1" as="geometry">
            <mxPoint x="1040" y="370" as="sourcePoint" />
            <mxPoint x="1090" y="320" as="targetPoint" />
          </mxGeometry>
        </mxCell>
        <mxCell id="XZWh8vnDKRJ4fjBg42Jt-49" value="" style="endArrow=none;html=1;rounded=0;entryX=0.5;entryY=1;entryDx=0;entryDy=0;exitX=0.5;exitY=0;exitDx=0;exitDy=0;" edge="1" parent="1" source="XZWh8vnDKRJ4fjBg42Jt-45" target="XZWh8vnDKRJ4fjBg42Jt-42">
          <mxGeometry width="50" height="50" relative="1" as="geometry">
            <mxPoint x="1040" y="370" as="sourcePoint" />
            <mxPoint x="1090" y="320" as="targetPoint" />
          </mxGeometry>
        </mxCell>
        <mxCell id="XZWh8vnDKRJ4fjBg42Jt-50" value="" style="endArrow=none;html=1;rounded=0;entryX=0.5;entryY=1;entryDx=0;entryDy=0;exitX=0.5;exitY=0;exitDx=0;exitDy=0;" edge="1" parent="1" source="XZWh8vnDKRJ4fjBg42Jt-44" target="XZWh8vnDKRJ4fjBg42Jt-42">
          <mxGeometry width="50" height="50" relative="1" as="geometry">
            <mxPoint x="1040" y="370" as="sourcePoint" />
            <mxPoint x="1090" y="320" as="targetPoint" />
          </mxGeometry>
        </mxCell>
        <mxCell id="XZWh8vnDKRJ4fjBg42Jt-51" value="" style="endArrow=none;html=1;rounded=0;entryX=0.5;entryY=1;entryDx=0;entryDy=0;exitX=0.5;exitY=0;exitDx=0;exitDy=0;" edge="1" parent="1" source="XZWh8vnDKRJ4fjBg42Jt-42" target="XZWh8vnDKRJ4fjBg42Jt-41">
          <mxGeometry width="50" height="50" relative="1" as="geometry">
            <mxPoint x="1040" y="370" as="sourcePoint" />
            <mxPoint x="1090" y="320" as="targetPoint" />
          </mxGeometry>
        </mxCell>
        <mxCell id="XZWh8vnDKRJ4fjBg42Jt-52" value="" style="endArrow=none;html=1;rounded=0;exitX=0.5;exitY=0;exitDx=0;exitDy=0;" edge="1" parent="1" source="XZWh8vnDKRJ4fjBg42Jt-41">
          <mxGeometry width="50" height="50" relative="1" as="geometry">
            <mxPoint x="1040" y="370" as="sourcePoint" />
            <mxPoint x="1120" y="170" as="targetPoint" />
          </mxGeometry>
        </mxCell>
        <mxCell id="XZWh8vnDKRJ4fjBg42Jt-53" value="" style="endArrow=none;html=1;rounded=0;entryX=0.5;entryY=1;entryDx=0;entryDy=0;exitX=0.5;exitY=0;exitDx=0;exitDy=0;" edge="1" parent="1" source="XZWh8vnDKRJ4fjBg42Jt-40" target="XZWh8vnDKRJ4fjBg42Jt-38">
          <mxGeometry width="50" height="50" relative="1" as="geometry">
            <mxPoint x="1040" y="370" as="sourcePoint" />
            <mxPoint x="1090" y="320" as="targetPoint" />
          </mxGeometry>
        </mxCell>
        <mxCell id="XZWh8vnDKRJ4fjBg42Jt-54" value="300" style="text;html=1;align=center;verticalAlign=middle;resizable=0;points=[];autosize=1;strokeColor=none;fillColor=none;" vertex="1" parent="1">
          <mxGeometry x="1130" y="88" width="40" height="30" as="geometry" />
        </mxCell>
        <mxCell id="XZWh8vnDKRJ4fjBg42Jt-55" value="Display Stocks" style="rounded=0;whiteSpace=wrap;html=1;" vertex="1" parent="1">
          <mxGeometry x="1420" y="118" width="120" height="50" as="geometry" />
        </mxCell>
        <mxCell id="XZWh8vnDKRJ4fjBg42Jt-56" value="" style="endArrow=none;html=1;rounded=0;exitX=0;exitY=0.5;exitDx=0;exitDy=0;entryX=1;entryY=0.5;entryDx=0;entryDy=0;" edge="1" parent="1" source="XZWh8vnDKRJ4fjBg42Jt-55" target="XZWh8vnDKRJ4fjBg42Jt-1">
          <mxGeometry width="50" height="50" relative="1" as="geometry">
            <mxPoint x="1200" y="370" as="sourcePoint" />
            <mxPoint x="790" y="70" as="targetPoint" />
            <Array as="points">
              <mxPoint x="1360" y="80" />
            </Array>
          </mxGeometry>
        </mxCell>
        <mxCell id="XZWh8vnDKRJ4fjBg42Jt-57" value="400" style="text;html=1;align=center;verticalAlign=middle;resizable=0;points=[];autosize=1;strokeColor=none;fillColor=none;" vertex="1" parent="1">
          <mxGeometry x="1420" y="88" width="40" height="30" as="geometry" />
        </mxCell>
        <mxCell id="XZWh8vnDKRJ4fjBg42Jt-58" value="Close Files" style="rounded=0;whiteSpace=wrap;html=1;" vertex="1" parent="1">
          <mxGeometry x="1640" y="115" width="120" height="50" as="geometry" />
        </mxCell>
        <mxCell id="XZWh8vnDKRJ4fjBg42Jt-59" value="CLOSE STOCKS-FILE-IN" style="rounded=1;whiteSpace=wrap;html=1;" vertex="1" parent="1">
          <mxGeometry x="1490" y="219.5" width="120" height="60" as="geometry" />
        </mxCell>
        <mxCell id="XZWh8vnDKRJ4fjBg42Jt-60" value="&lt;span class=&quot;hljs-comment&quot;&gt;CLOSE PORTFOLIO-FILE-IN&lt;/span&gt;" style="rounded=1;whiteSpace=wrap;html=1;" vertex="1" parent="1">
          <mxGeometry x="1640" y="228" width="120" height="60" as="geometry" />
        </mxCell>
        <mxCell id="XZWh8vnDKRJ4fjBg42Jt-61" value="CLOSE REPORT-FILE-IN" style="rounded=1;whiteSpace=wrap;html=1;" vertex="1" parent="1">
          <mxGeometry x="1780" y="210" width="120" height="60" as="geometry" />
        </mxCell>
        <mxCell id="XZWh8vnDKRJ4fjBg42Jt-62" value="" style="endArrow=none;html=1;rounded=0;exitX=0.5;exitY=0;exitDx=0;exitDy=0;entryX=0.5;entryY=1;entryDx=0;entryDy=0;" edge="1" parent="1" source="XZWh8vnDKRJ4fjBg42Jt-61" target="XZWh8vnDKRJ4fjBg42Jt-58">
          <mxGeometry width="50" height="50" relative="1" as="geometry">
            <mxPoint x="1390" y="370" as="sourcePoint" />
            <mxPoint x="1700" y="160" as="targetPoint" />
          </mxGeometry>
        </mxCell>
        <mxCell id="XZWh8vnDKRJ4fjBg42Jt-63" value="" style="endArrow=none;html=1;rounded=0;entryX=0.5;entryY=1;entryDx=0;entryDy=0;exitX=0.5;exitY=0;exitDx=0;exitDy=0;" edge="1" parent="1" source="XZWh8vnDKRJ4fjBg42Jt-60" target="XZWh8vnDKRJ4fjBg42Jt-58">
          <mxGeometry width="50" height="50" relative="1" as="geometry">
            <mxPoint x="1390" y="370" as="sourcePoint" />
            <mxPoint x="1440" y="310" as="targetPoint" />
          </mxGeometry>
        </mxCell>
        <mxCell id="XZWh8vnDKRJ4fjBg42Jt-64" value="" style="endArrow=none;html=1;rounded=0;entryX=0.5;entryY=1;entryDx=0;entryDy=0;exitX=0.5;exitY=0;exitDx=0;exitDy=0;" edge="1" parent="1" source="XZWh8vnDKRJ4fjBg42Jt-59" target="XZWh8vnDKRJ4fjBg42Jt-58">
          <mxGeometry width="50" height="50" relative="1" as="geometry">
            <mxPoint x="1390" y="370" as="sourcePoint" />
            <mxPoint x="1440" y="320" as="targetPoint" />
          </mxGeometry>
        </mxCell>
        <mxCell id="XZWh8vnDKRJ4fjBg42Jt-65" value="" style="endArrow=none;html=1;rounded=0;exitX=0;exitY=0.5;exitDx=0;exitDy=0;" edge="1" parent="1" source="XZWh8vnDKRJ4fjBg42Jt-58">
          <mxGeometry width="50" height="50" relative="1" as="geometry">
            <mxPoint x="1390" y="370" as="sourcePoint" />
            <mxPoint x="540" y="60" as="targetPoint" />
            <Array as="points">
              <mxPoint x="1560" y="80" />
            </Array>
          </mxGeometry>
        </mxCell>
        <mxCell id="XZWh8vnDKRJ4fjBg42Jt-66" value="500" style="text;html=1;align=center;verticalAlign=middle;resizable=0;points=[];autosize=1;strokeColor=none;fillColor=none;" vertex="1" parent="1">
          <mxGeometry x="1630" y="88" width="40" height="30" as="geometry" />
        </mxCell>
      </root>
    </mxGraphModel>
  </diagram>
</mxfile>
